<svg width="176" height="29" viewBox="0 0 176 29" fill="none" xmlns="http://www.w3.org/2000/svg">
<path d="M0.8 28V-1.90735e-06H11.32C13.5867 -1.90735e-06 15.4533 0.386665 16.92 1.16C18.4133 1.90667 19.52 2.93333 20.24 4.24C20.9867 5.54667 21.36 7.02667 21.36 8.68C21.36 10.2 21 11.6133 20.28 12.92C19.5867 14.2267 18.4933 15.2933 17 16.12C15.5333 16.92 13.64 17.32 11.32 17.32H6.2V28H0.8ZM6.2 12.96H11C12.7067 12.96 13.9333 12.5733 14.68 11.8C15.4533 11.0267 15.84 9.98667 15.84 8.68C15.84 7.32 15.4533 6.26667 14.68 5.52C13.9333 4.77333 12.7067 4.4 11 4.4H6.2V12.96ZM31.1484 28.48C29.2284 28.48 27.4951 28.04 25.9484 27.16C24.4018 26.28 23.1751 25.0533 22.2684 23.48C21.3884 21.9067 20.9484 20.1067 20.9484 18.08C20.9484 16.0267 21.4018 14.2267 22.3084 12.68C23.2151 11.1067 24.4418 9.88 25.9884 9C27.5351 8.12 29.2551 7.68 31.1484 7.68C33.0684 7.68 34.8018 8.12 36.3484 9C37.8951 9.88 39.1084 11.1067 39.9884 12.68C40.8951 14.2267 41.3484 16.0267 41.3484 18.08C41.3484 20.1333 40.8951 21.9467 39.9884 23.52C39.0818 25.0667 37.8551 26.28 36.3084 27.16C34.7884 28.04 33.0684 28.48 31.1484 28.48ZM31.1084 23.92C31.9884 23.92 32.7751 23.7067 33.4684 23.28C34.1884 22.8533 34.7618 22.2133 35.1884 21.36C35.6151 20.48 35.8284 19.3867 35.8284 18.08C35.8284 16.7733 35.6151 15.6933 35.1884 14.84C34.7618 13.96 34.1884 13.3067 33.4684 12.88C32.7751 12.4533 32.0151 12.24 31.1884 12.24C30.3351 12.24 29.5484 12.4533 28.8284 12.88C28.1084 13.3067 27.5351 13.96 27.1084 14.84C26.6818 15.6933 26.4684 16.7733 26.4684 18.08C26.4684 19.3867 26.6818 20.48 27.1084 21.36C27.5351 22.2133 28.0951 22.8533 28.7884 23.28C29.5084 23.7067 30.2818 23.92 31.1084 23.92ZM42.7312 28V8.16H47.4512L47.8912 11.48H48.0512C48.6646 10.2267 49.5179 9.28 50.6112 8.64C51.7046 8 52.9712 7.68 54.4112 7.68C55.3979 7.68 56.3046 7.81333 57.1312 8.08C57.9846 8.34667 58.7312 8.77333 59.3712 9.36C60.0112 9.92 60.5446 10.6667 60.9712 11.6H61.1312C61.8779 10.3733 62.7979 9.41333 63.8912 8.72C65.0112 8.02667 66.4246 7.68 68.1312 7.68C69.6513 7.68 70.9713 8.04 72.0913 8.76C73.2113 9.45333 74.0646 10.48 74.6513 11.84C75.2646 13.2 75.5713 14.88 75.5713 16.88V28H70.2113V17.36C70.2113 15.7067 69.8913 14.44 69.2512 13.56C68.6112 12.68 67.6112 12.24 66.2512 12.24C65.3446 12.24 64.5713 12.44 63.9313 12.84C63.2912 13.2133 62.7846 13.7867 62.4112 14.56C62.0379 15.3067 61.8512 16.24 61.8512 17.36V28H56.4912V17.36C56.4912 15.7067 56.1712 14.44 55.5312 13.56C54.8912 12.68 53.8779 12.24 52.4912 12.24C51.6912 12.24 50.9579 12.4667 50.2912 12.92C49.6246 13.3467 49.0912 13.9733 48.6912 14.8C48.3179 15.6 48.1312 16.5867 48.1312 17.76V28H42.7312ZM86.9906 28.48C85.0706 28.48 83.3373 28.04 81.7906 27.16C80.244 26.28 79.0173 25.0533 78.1106 23.48C77.2306 21.9067 76.7906 20.1067 76.7906 18.08C76.7906 16.0267 77.244 14.2267 78.1506 12.68C79.0573 11.1067 80.284 9.88 81.8306 9C83.3773 8.12 85.0973 7.68 86.9906 7.68C88.9106 7.68 90.644 8.12 92.1906 9C93.7373 9.88 94.9506 11.1067 95.8306 12.68C96.7373 14.2267 97.1906 16.0267 97.1906 18.08C97.1906 20.1333 96.7373 21.9467 95.8306 23.52C94.924 25.0667 93.6973 26.28 92.1506 27.16C90.6306 28.04 88.9106 28.48 86.9906 28.48ZM86.9506 23.92C87.8306 23.92 88.6173 23.7067 89.3106 23.28C90.0306 22.8533 90.604 22.2133 91.0306 21.36C91.4573 20.48 91.6706 19.3867 91.6706 18.08C91.6706 16.7733 91.4573 15.6933 91.0306 14.84C90.604 13.96 90.0306 13.3067 89.3106 12.88C88.6173 12.4533 87.8573 12.24 87.0306 12.24C86.1773 12.24 85.3906 12.4533 84.6706 12.88C83.9506 13.3067 83.3773 13.96 82.9506 14.84C82.524 15.6933 82.3106 16.7733 82.3106 18.08C82.3106 19.3867 82.524 20.48 82.9506 21.36C83.3773 22.2133 83.9373 22.8533 84.6306 23.28C85.3506 23.7067 86.124 23.92 86.9506 23.92ZM107.253 28.48C105.387 28.48 103.76 28.04 102.373 27.16C100.987 26.2533 99.9068 25.0133 99.1334 23.44C98.3601 21.8667 97.9734 20.08 97.9734 18.08C97.9734 16.08 98.3601 14.2933 99.1334 12.72C99.9068 11.1467 101 9.92 102.413 9.04C103.827 8.13333 105.507 7.68 107.453 7.68C109 7.68 110.333 7.98667 111.453 8.6C112.6 9.18667 113.507 9.89333 114.173 10.72V-1.90735e-06H119.573V28H115.013L114.733 24.52H114.573C114.067 25.3467 113.453 26.0533 112.733 26.64C112.013 27.2267 111.2 27.68 110.293 28C109.387 28.32 108.373 28.48 107.253 28.48ZM108.853 24.04C109.947 24.04 110.893 23.7867 111.693 23.28C112.52 22.7733 113.147 22.08 113.573 21.2C114.027 20.2933 114.253 19.24 114.253 18.04C114.253 16.8667 114.027 15.84 113.573 14.96C113.147 14.0533 112.52 13.3467 111.693 12.84C110.867 12.3333 109.907 12.08 108.813 12.08C107.747 12.08 106.8 12.3333 105.973 12.84C105.173 13.3467 104.547 14.0533 104.093 14.96C103.667 15.84 103.453 16.8667 103.453 18.04C103.453 19.24 103.667 20.2933 104.093 21.2C104.547 22.08 105.173 22.7733 105.973 23.28C106.8 23.7867 107.76 24.04 108.853 24.04ZM131.388 28.48C129.468 28.48 127.734 28.04 126.188 27.16C124.641 26.28 123.414 25.0533 122.508 23.48C121.628 21.9067 121.188 20.1067 121.188 18.08C121.188 16.0267 121.641 14.2267 122.548 12.68C123.454 11.1067 124.681 9.88 126.228 9C127.774 8.12 129.494 7.68 131.388 7.68C133.308 7.68 135.041 8.12 136.588 9C138.134 9.88 139.348 11.1067 140.228 12.68C141.134 14.2267 141.588 16.0267 141.588 18.08C141.588 20.1333 141.134 21.9467 140.228 23.52C139.321 25.0667 138.094 26.28 136.548 27.16C135.028 28.04 133.308 28.48 131.388 28.48ZM131.348 23.92C132.228 23.92 133.014 23.7067 133.708 23.28C134.428 22.8533 135.001 22.2133 135.428 21.36C135.854 20.48 136.068 19.3867 136.068 18.08C136.068 16.7733 135.854 15.6933 135.428 14.84C135.001 13.96 134.428 13.3067 133.708 12.88C133.014 12.4533 132.254 12.24 131.428 12.24C130.574 12.24 129.788 12.4533 129.068 12.88C128.348 13.3067 127.774 13.96 127.348 14.84C126.921 15.6933 126.708 16.7733 126.708 18.08C126.708 19.3867 126.921 20.48 127.348 21.36C127.774 22.2133 128.334 22.8533 129.028 23.28C129.748 23.7067 130.521 23.92 131.348 23.92ZM142.97 28V8.16H147.57L148.05 12.52H148.21C148.797 11.1067 149.437 10.0667 150.13 9.4C150.824 8.70667 151.61 8.25333 152.49 8.04C153.397 7.8 154.41 7.68 155.53 7.68V13.4H154.05C153.144 13.4 152.33 13.5067 151.61 13.72C150.917 13.9067 150.33 14.2267 149.85 14.68C149.37 15.1067 148.997 15.68 148.73 16.4C148.49 17.12 148.37 17.9867 148.37 19V28H142.97ZM165.593 28.48C163.566 28.48 161.766 28.0533 160.193 27.2C158.646 26.3467 157.433 25.1467 156.553 23.6C155.673 22.0533 155.233 20.28 155.233 18.28C155.233 16.2 155.659 14.3733 156.513 12.8C157.393 11.2 158.606 9.94667 160.153 9.04C161.726 8.13333 163.539 7.68 165.593 7.68C167.593 7.68 169.339 8.10667 170.833 8.96C172.326 9.81333 173.499 10.9867 174.353 12.48C175.206 13.9467 175.633 15.6133 175.633 17.48C175.633 17.7467 175.619 18.0533 175.593 18.4C175.593 18.72 175.579 19.0533 175.553 19.4H159.073V16.08H170.153C170.073 14.8267 169.606 13.8267 168.753 13.08C167.926 12.3333 166.886 11.96 165.633 11.96C164.699 11.96 163.846 12.1733 163.073 12.6C162.299 13 161.686 13.6267 161.233 14.48C160.779 15.3067 160.553 16.36 160.553 17.64V18.8C160.553 19.8933 160.766 20.84 161.193 21.64C161.619 22.4133 162.206 23.0133 162.953 23.44C163.726 23.8667 164.593 24.08 165.553 24.08C166.539 24.08 167.366 23.8667 168.033 23.44C168.699 22.9867 169.206 22.4133 169.553 21.72H175.033C174.659 22.9733 174.033 24.12 173.153 25.16C172.273 26.1733 171.193 26.9867 169.913 27.6C168.633 28.1867 167.193 28.48 165.593 28.48Z" fill="white"/>
</svg>
