<svg width="629" height="639" viewBox="0 0 629 639" fill="none" xmlns="http://www.w3.org/2000/svg">
<path opacity="0.03" d="M208.845 402.811L539.257 345V411.204L208.845 470L208.845 402.811Z" fill="#0097FE"/>
<g filter="url(#filter0_d_0_476)">
<rect x="58.2264" y="121" width="339" height="412" rx="10" fill="white"/>
</g>
<path d="M161.088 167.246V151.674H164.091V164.91H170.943V167.246H161.088ZM177.755 167.513C176.688 167.513 175.724 167.268 174.863 166.779C174.018 166.29 173.343 165.607 172.839 164.732C172.335 163.857 172.083 162.856 172.083 161.729C172.083 160.572 172.335 159.564 172.839 158.704C173.343 157.829 174.025 157.146 174.886 156.657C175.746 156.168 176.702 155.923 177.755 155.923C178.838 155.923 179.802 156.168 180.647 156.657C181.508 157.146 182.182 157.829 182.672 158.704C183.176 159.564 183.428 160.572 183.428 161.729C183.428 162.856 183.176 163.857 182.672 164.732C182.182 165.607 181.508 166.29 180.647 166.779C179.787 167.268 178.823 167.513 177.755 167.513ZM177.755 164.91C178.245 164.91 178.682 164.792 179.068 164.554C179.453 164.317 179.765 163.961 180.002 163.487C180.254 163.012 180.38 162.419 180.38 161.707C180.38 160.995 180.262 160.402 180.024 159.927C179.787 159.453 179.468 159.097 179.068 158.859C178.682 158.622 178.252 158.503 177.778 158.503C177.303 158.503 176.866 158.622 176.465 158.859C176.065 159.097 175.746 159.46 175.509 159.949C175.271 160.424 175.153 161.01 175.153 161.707C175.153 162.419 175.271 163.012 175.509 163.487C175.746 163.961 176.057 164.317 176.443 164.554C176.843 164.792 177.281 164.91 177.755 164.91ZM185.55 167.246V156.19H188.219L188.509 158.259C188.776 157.769 189.102 157.354 189.487 157.013C189.888 156.672 190.348 156.405 190.867 156.212C191.386 156.019 191.949 155.923 192.557 155.923V159.082H191.712C191.252 159.082 190.822 159.134 190.422 159.238C190.036 159.341 189.702 159.512 189.421 159.749C189.139 159.986 188.924 160.313 188.776 160.728C188.627 161.128 188.553 161.64 188.553 162.263V167.246H185.55ZM199.287 167.513C198.16 167.513 197.159 167.276 196.284 166.801C195.424 166.312 194.749 165.644 194.26 164.799C193.77 163.939 193.526 162.945 193.526 161.818C193.526 160.661 193.763 159.645 194.238 158.77C194.727 157.88 195.402 157.183 196.262 156.679C197.137 156.175 198.153 155.923 199.31 155.923C200.407 155.923 201.371 156.16 202.202 156.635C203.047 157.109 203.7 157.762 204.159 158.592C204.634 159.408 204.871 160.335 204.871 161.373C204.871 161.521 204.864 161.692 204.849 161.885C204.849 162.063 204.842 162.248 204.827 162.441H195.684V160.617H201.824C201.779 159.935 201.52 159.386 201.045 158.971C200.585 158.555 200.007 158.348 199.31 158.348C198.791 158.348 198.316 158.466 197.886 158.704C197.456 158.926 197.115 159.267 196.863 159.727C196.611 160.187 196.484 160.772 196.484 161.484V162.129C196.484 162.723 196.603 163.242 196.84 163.687C197.078 164.117 197.404 164.458 197.819 164.71C198.249 164.947 198.731 165.066 199.265 165.066C199.814 165.066 200.274 164.947 200.645 164.71C201.015 164.458 201.297 164.139 201.49 163.753H204.538C204.33 164.465 203.981 165.103 203.492 165.667C203.003 166.23 202.402 166.683 201.69 167.024C200.978 167.35 200.177 167.513 199.287 167.513ZM206.819 167.246V156.19H209.466L209.711 157.658C210.067 157.124 210.534 156.701 211.113 156.39C211.706 156.079 212.388 155.923 213.159 155.923C213.723 155.923 214.227 155.997 214.672 156.145C215.132 156.279 215.532 156.494 215.873 156.79C216.229 157.072 216.526 157.428 216.763 157.858C217.178 157.25 217.72 156.776 218.387 156.434C219.069 156.093 219.803 155.923 220.59 155.923C221.568 155.923 222.384 156.116 223.037 156.501C223.704 156.887 224.208 157.465 224.549 158.236C224.89 158.993 225.061 159.92 225.061 161.017V167.246H222.08V161.284C222.08 160.379 221.902 159.682 221.546 159.193C221.205 158.689 220.664 158.437 219.922 158.437C219.433 158.437 218.995 158.563 218.61 158.815C218.239 159.052 217.95 159.401 217.742 159.86C217.549 160.305 217.453 160.854 217.453 161.507V167.246H214.45V161.284C214.45 160.379 214.272 159.682 213.916 159.193C213.575 158.689 213.018 158.437 212.247 158.437C211.773 158.437 211.35 158.563 210.979 158.815C210.623 159.052 210.341 159.401 210.134 159.86C209.926 160.305 209.822 160.854 209.822 161.507V167.246H206.819ZM232.174 167.246V151.674H235.177V167.246H232.174ZM237.68 172.14V156.19H240.35L240.684 157.725C240.921 157.398 241.203 157.102 241.529 156.835C241.855 156.553 242.248 156.331 242.708 156.168C243.168 156.004 243.702 155.923 244.31 155.923C245.348 155.923 246.267 156.175 247.068 156.679C247.884 157.183 248.529 157.873 249.004 158.748C249.478 159.623 249.716 160.624 249.716 161.751C249.716 162.849 249.478 163.835 249.004 164.71C248.529 165.585 247.884 166.275 247.068 166.779C246.267 167.268 245.348 167.513 244.31 167.513C243.494 167.513 242.782 167.365 242.174 167.068C241.566 166.757 241.069 166.334 240.684 165.8V172.14H237.68ZM243.642 164.888C244.221 164.888 244.74 164.755 245.2 164.488C245.659 164.221 246.015 163.85 246.267 163.375C246.534 162.901 246.668 162.352 246.668 161.729C246.668 161.106 246.534 160.557 246.267 160.083C246.015 159.593 245.659 159.215 245.2 158.948C244.74 158.667 244.221 158.526 243.642 158.526C243.049 158.526 242.523 158.667 242.063 158.948C241.603 159.215 241.24 159.593 240.973 160.083C240.721 160.557 240.595 161.099 240.595 161.707C240.595 162.33 240.721 162.886 240.973 163.375C241.24 163.85 241.603 164.221 242.063 164.488C242.523 164.755 243.049 164.888 243.642 164.888ZM256.395 167.513C255.417 167.513 254.549 167.35 253.793 167.024C253.036 166.697 252.436 166.252 251.991 165.689C251.546 165.11 251.286 164.458 251.212 163.731H254.215C254.275 163.998 254.401 164.25 254.594 164.488C254.786 164.71 255.031 164.888 255.328 165.021C255.624 165.155 255.965 165.222 256.351 165.222C256.766 165.222 257.1 165.17 257.352 165.066C257.604 164.947 257.79 164.799 257.908 164.621C258.027 164.428 258.086 164.235 258.086 164.043C258.086 163.731 257.997 163.501 257.819 163.353C257.641 163.19 257.374 163.056 257.018 162.953C256.677 162.849 256.269 162.745 255.795 162.641C255.305 162.523 254.809 162.389 254.304 162.241C253.8 162.092 253.34 161.907 252.925 161.685C252.525 161.447 252.198 161.151 251.946 160.795C251.694 160.424 251.568 159.964 251.568 159.415C251.568 158.763 251.746 158.17 252.102 157.636C252.473 157.102 252.992 156.687 253.659 156.39C254.341 156.079 255.157 155.923 256.106 155.923C257.426 155.923 258.479 156.227 259.265 156.835C260.066 157.443 260.533 158.281 260.667 159.349H257.841C257.767 158.993 257.575 158.718 257.263 158.526C256.966 158.333 256.573 158.236 256.084 158.236C255.565 158.236 255.165 158.333 254.883 158.526C254.616 158.704 254.482 158.941 254.482 159.238C254.482 159.445 254.579 159.623 254.771 159.771C254.964 159.92 255.231 160.053 255.572 160.172C255.913 160.276 256.321 160.387 256.796 160.506C257.597 160.683 258.316 160.884 258.954 161.106C259.606 161.329 260.125 161.647 260.511 162.063C260.897 162.478 261.089 163.079 261.089 163.865C261.104 164.562 260.919 165.192 260.533 165.756C260.148 166.304 259.606 166.734 258.909 167.046C258.212 167.357 257.374 167.513 256.395 167.513ZM267.28 167.513C266.376 167.513 265.597 167.32 264.945 166.935C264.307 166.549 263.817 165.978 263.476 165.222C263.135 164.465 262.965 163.531 262.965 162.419V156.19H265.968V162.152C265.968 163.071 266.153 163.776 266.524 164.265C266.895 164.74 267.481 164.977 268.281 164.977C268.786 164.977 269.238 164.858 269.638 164.621C270.039 164.384 270.35 164.043 270.573 163.598C270.795 163.138 270.907 162.582 270.907 161.929V156.19H273.91V167.246H271.262L271.04 165.4C270.699 166.037 270.209 166.549 269.572 166.935C268.934 167.32 268.17 167.513 267.28 167.513ZM276.363 167.246V156.19H279.01L279.255 157.658C279.61 157.124 280.078 156.701 280.656 156.39C281.249 156.079 281.931 155.923 282.703 155.923C283.266 155.923 283.77 155.997 284.215 156.145C284.675 156.279 285.076 156.494 285.417 156.79C285.773 157.072 286.069 157.428 286.307 157.858C286.722 157.25 287.263 156.776 287.931 156.434C288.613 156.093 289.347 155.923 290.133 155.923C291.112 155.923 291.927 156.116 292.58 156.501C293.247 156.887 293.752 157.465 294.093 158.236C294.434 158.993 294.604 159.92 294.604 161.017V167.246H291.623V161.284C291.623 160.379 291.445 159.682 291.089 159.193C290.748 158.689 290.207 158.437 289.465 158.437C288.976 158.437 288.539 158.563 288.153 158.815C287.782 159.052 287.493 159.401 287.285 159.86C287.093 160.305 286.996 160.854 286.996 161.507V167.246H283.993V161.284C283.993 160.379 283.815 159.682 283.459 159.193C283.118 158.689 282.562 158.437 281.791 158.437C281.316 158.437 280.893 158.563 280.523 158.815C280.167 159.052 279.885 159.401 279.677 159.86C279.47 160.305 279.366 160.854 279.366 161.507V167.246H276.363Z" fill="#03133D"/>
<path d="M228.071 425.696C213.157 425.696 198.389 422.758 184.61 417.051C170.831 411.343 158.311 402.978 147.765 392.432C137.219 381.886 128.854 369.366 123.146 355.587C117.439 341.808 114.501 327.04 114.501 312.125C114.501 297.211 117.439 282.443 123.146 268.664C128.854 254.885 137.219 242.365 147.765 231.819C158.311 221.273 170.831 212.908 184.61 207.201C198.389 201.493 213.157 198.555 228.071 198.555C242.985 198.555 257.754 201.493 271.533 207.201C285.312 212.908 297.831 221.273 308.378 231.819C318.924 242.365 327.291 254.885 332.996 268.664C338.705 282.443 341.643 297.211 341.643 312.125C341.643 327.04 338.705 341.808 332.996 355.587C327.287 369.366 318.924 381.886 308.378 392.432C297.831 402.978 285.312 411.343 271.532 417.051C257.754 422.758 242.985 425.696 228.071 425.696Z" stroke="#F0F3FF" stroke-width="7.41536" stroke-linecap="round"/>
<path d="M228.071 425.696C211.248 425.696 194.635 421.958 179.433 414.753C164.23 407.548 150.818 397.056 140.166 384.034C129.514 371.012 121.888 355.787 117.839 339.458C113.79 323.129 113.42 306.105 116.754 289.615C120.089 273.126 127.045 257.583 137.12 244.11C147.196 230.637 160.139 219.571 175.013 211.711C189.888 203.852 206.323 199.395 223.13 198.663C239.937 197.931 256.697 200.942 272.199 207.479" stroke="#0097FE" stroke-width="7.41536" stroke-linecap="round"/>
<path d="M227.739 399.026C216.247 399.026 204.867 396.762 194.249 392.364C183.632 387.966 173.985 381.52 165.858 373.394C157.732 365.267 151.286 355.62 146.888 345.002C142.49 334.385 140.226 323.005 140.226 311.513C140.226 300.021 142.49 288.64 146.888 278.023C151.286 267.405 157.732 257.758 165.858 249.632C173.985 241.506 183.632 235.059 194.249 230.661C204.867 226.264 216.247 224 227.739 224C239.232 224 250.611 226.264 261.229 230.661C271.846 235.059 281.494 241.506 289.62 249.632C297.747 257.758 304.193 267.405 308.589 278.023C312.988 288.641 315.251 300.02 315.251 311.513C315.251 323.005 312.988 334.385 308.589 345.002C304.192 355.62 297.747 365.267 289.62 373.394C281.494 381.52 271.846 387.966 261.229 392.364C250.611 396.762 239.232 399.026 227.739 399.026Z" stroke="#F0F3FF" stroke-width="7.41536" stroke-linecap="round"/>
<path d="M227.739 399.026C212.965 399.026 198.431 395.285 185.491 388.152C172.553 381.02 161.63 370.727 153.742 358.234C145.854 345.741 141.258 331.455 140.381 316.707C139.504 301.958 142.375 287.228 148.727 273.888C155.079 260.548 164.706 249.035 176.708 240.419C188.711 231.804 202.699 226.367 217.37 224.617C232.04 222.866 246.916 224.858 260.608 230.407C274.301 235.956 286.366 244.882 295.679 256.352" stroke="#AC5FE6" stroke-width="7.41536" stroke-linecap="round"/>
<path d="M228.517 376.581C220.074 376.581 211.714 374.918 203.914 371.687C196.114 368.456 189.027 363.72 183.057 357.751C177.087 351.781 172.351 344.694 169.12 336.893C165.889 329.093 164.226 320.733 164.226 312.29C164.226 303.848 165.889 295.488 169.12 287.688C172.351 279.888 177.087 272.8 183.057 266.83C189.027 260.86 196.114 256.125 203.914 252.894C211.714 249.663 220.074 248 228.517 248C236.959 248 245.32 249.663 253.12 252.894C260.92 256.125 268.007 260.86 273.977 266.83C279.947 272.8 284.682 279.888 287.913 287.688C291.144 295.488 292.807 303.848 292.807 312.29C292.807 320.733 291.144 329.093 287.913 336.893C284.682 344.694 279.947 351.781 273.977 357.751C268.007 363.72 260.92 368.456 253.12 371.687C245.32 374.918 236.959 376.581 228.517 376.581Z" stroke="#EDF1FC" stroke-width="7.41536" stroke-linecap="round"/>
<path d="M228.517 376.581C214.312 376.581 200.508 371.877 189.259 363.203C178.011 354.53 169.951 342.375 166.339 328.638C162.728 314.9 163.767 300.353 169.295 287.269C174.824 274.184 184.53 263.299 196.897 256.313C209.265 249.327 223.598 246.634 237.658 248.653C251.718 250.673 264.713 257.292 274.615 267.477C284.516 277.662 290.765 290.839 292.387 304.951C294.008 319.062 290.911 333.314 283.578 345.479" stroke="#FFAE00" stroke-width="7.41536" stroke-linecap="round"/>
<path d="M228.04 306.053C236.34 306.053 243.067 299.326 243.067 291.027C243.067 282.728 236.34 276 228.04 276C219.741 276 213.014 282.728 213.014 291.027C213.014 299.326 219.741 306.053 228.04 306.053Z" fill="#EBF7FF"/>
<path fill-rule="evenodd" clip-rule="evenodd" d="M234.506 287.092C234.505 287.039 234.489 286.988 234.475 286.937C234.464 286.894 234.459 286.85 234.44 286.811C234.423 286.773 234.394 286.741 234.369 286.706C234.338 286.661 234.31 286.615 234.27 286.578C234.263 286.572 234.26 286.563 234.253 286.557C234.226 286.534 234.193 286.526 234.164 286.507C234.12 286.478 234.076 286.449 234.026 286.429C233.976 286.412 233.927 286.407 233.876 286.4C233.841 286.394 233.809 286.378 233.771 286.378H230.064C229.654 286.378 229.323 286.71 229.323 287.119C229.323 287.529 229.654 287.861 230.064 287.861H232.159L229.167 291.351L225.997 289.449C225.684 289.26 225.281 289.329 225.046 289.61L221.34 294.058C221.078 294.372 221.12 294.84 221.435 295.102C221.574 295.217 221.742 295.274 221.909 295.274C222.122 295.274 222.332 295.183 222.479 295.007L225.78 291.047L228.941 292.945C229.252 293.131 229.651 293.065 229.886 292.791L233.03 289.123V290.826C233.03 291.235 233.361 291.567 233.771 291.567C234.181 291.567 234.512 291.235 234.512 290.826V287.119C234.512 287.11 234.507 287.102 234.506 287.092Z" fill="#231F20"/>
<mask id="mask0_0_476" style="mask-type:luminance" maskUnits="userSpaceOnUse" x="221" y="286" width="14" height="10">
<path fill-rule="evenodd" clip-rule="evenodd" d="M234.506 287.092C234.505 287.039 234.489 286.988 234.475 286.937C234.464 286.894 234.459 286.85 234.44 286.811C234.423 286.773 234.394 286.741 234.369 286.706C234.338 286.661 234.31 286.615 234.27 286.578C234.263 286.572 234.26 286.563 234.253 286.557C234.226 286.534 234.193 286.526 234.164 286.507C234.12 286.478 234.076 286.449 234.026 286.429C233.976 286.412 233.927 286.407 233.876 286.4C233.841 286.394 233.809 286.378 233.771 286.378H230.064C229.654 286.378 229.323 286.71 229.323 287.119C229.323 287.529 229.654 287.861 230.064 287.861H232.159L229.167 291.351L225.997 289.449C225.684 289.26 225.281 289.329 225.046 289.61L221.34 294.058C221.078 294.372 221.12 294.84 221.435 295.102C221.574 295.217 221.742 295.274 221.909 295.274C222.122 295.274 222.332 295.183 222.479 295.007L225.78 291.047L228.941 292.945C229.252 293.131 229.651 293.065 229.886 292.791L233.03 289.123V290.826C233.03 291.235 233.361 291.567 233.771 291.567C234.181 291.567 234.512 291.235 234.512 290.826V287.119C234.512 287.11 234.507 287.102 234.506 287.092Z" fill="white"/>
</mask>
<g mask="url(#mask0_0_476)">
<rect x="218.945" y="281.93" width="17.7913" height="17.7913" fill="#0097FE"/>
</g>
<path d="M201.062 320.452V314.839H199.203V314.225H203.668V314.839H201.809V320.452H201.062ZM203.898 320.452V315.773H204.574L204.628 316.627C204.734 316.413 204.874 316.235 205.046 316.093C205.218 315.951 205.425 315.844 205.668 315.773C205.917 315.702 206.196 315.666 206.505 315.666V316.449H206.042C205.864 316.449 205.692 316.472 205.526 316.52C205.36 316.567 205.209 316.644 205.072 316.751C204.942 316.858 204.838 317.003 204.761 317.187C204.684 317.371 204.645 317.602 204.645 317.881V320.452H203.898ZM208.645 320.559C208.289 320.559 207.993 320.493 207.756 320.363C207.518 320.226 207.341 320.049 207.222 319.829C207.103 319.604 207.044 319.364 207.044 319.109C207.044 318.8 207.121 318.539 207.275 318.326C207.435 318.106 207.658 317.94 207.943 317.828C208.227 317.715 208.559 317.659 208.939 317.659H210.104C210.104 317.356 210.069 317.104 209.997 316.902C209.926 316.701 209.811 316.55 209.65 316.449C209.49 316.348 209.277 316.298 209.01 316.298C208.743 316.298 208.515 316.366 208.325 316.502C208.135 316.633 208.017 316.828 207.969 317.089H207.204C207.24 316.781 207.344 316.523 207.516 316.315C207.687 316.102 207.904 315.942 208.165 315.835C208.432 315.722 208.713 315.666 209.01 315.666C209.431 315.666 209.778 315.743 210.051 315.897C210.324 316.045 210.525 316.256 210.656 316.529C210.786 316.796 210.851 317.113 210.851 317.481V320.452H210.184L210.14 319.651C210.08 319.776 210.003 319.894 209.908 320.007C209.819 320.114 209.713 320.209 209.588 320.292C209.464 320.375 209.321 320.44 209.161 320.487C209.007 320.535 208.835 320.559 208.645 320.559ZM208.752 319.927C208.948 319.927 209.129 319.882 209.295 319.794C209.461 319.705 209.603 319.586 209.722 319.438C209.846 319.283 209.941 319.112 210.006 318.922C210.072 318.732 210.104 318.533 210.104 318.326V318.237H209.001C208.722 318.237 208.494 318.272 208.316 318.344C208.144 318.415 208.02 318.515 207.943 318.646C207.865 318.771 207.827 318.913 207.827 319.073C207.827 319.245 207.862 319.396 207.934 319.527C208.005 319.651 208.109 319.749 208.245 319.82C208.387 319.891 208.556 319.927 208.752 319.927ZM212.202 320.452V315.275C212.202 314.99 212.249 314.759 212.344 314.581C212.439 314.397 212.578 314.263 212.762 314.18C212.952 314.091 213.183 314.047 213.456 314.047H214.141V314.687H213.58C213.355 314.687 213.192 314.735 213.091 314.83C212.996 314.919 212.949 315.076 212.949 315.301V320.452H212.202ZM211.472 316.404V315.773H214.194V316.404H211.472ZM215.229 320.452V316.404H214.508V315.773H215.229V315.275C215.229 314.99 215.276 314.759 215.371 314.581C215.466 314.397 215.606 314.263 215.789 314.18C215.979 314.091 216.211 314.047 216.483 314.047H216.928V314.687H216.599C216.38 314.687 216.219 314.732 216.119 314.821C216.024 314.91 215.976 315.067 215.976 315.292V315.773H218.529V320.452H217.782V316.404H215.976V320.452H215.229ZM218.165 314.883C218.022 314.883 217.901 314.836 217.8 314.741C217.699 314.64 217.649 314.515 217.649 314.367C217.649 314.219 217.699 314.1 217.8 314.011C217.901 313.916 218.022 313.869 218.165 313.869C218.313 313.869 218.434 313.916 218.529 314.011C218.63 314.1 218.681 314.219 218.681 314.367C218.681 314.515 218.63 314.64 218.529 314.741C218.434 314.836 218.313 314.883 218.165 314.883ZM221.703 320.559C221.276 320.559 220.896 320.458 220.564 320.256C220.232 320.049 219.971 319.761 219.781 319.393C219.591 319.026 219.497 318.599 219.497 318.112C219.497 317.62 219.591 317.193 219.781 316.831C219.971 316.464 220.232 316.179 220.564 315.977C220.896 315.77 221.276 315.666 221.703 315.666C222.236 315.666 222.681 315.808 223.037 316.093C223.399 316.378 223.63 316.76 223.731 317.24H222.966C222.901 316.944 222.749 316.716 222.512 316.555C222.281 316.389 222.008 316.306 221.694 316.306C221.421 316.306 221.175 316.375 220.955 316.511C220.742 316.647 220.573 316.849 220.448 317.116C220.324 317.383 220.262 317.715 220.262 318.112C220.262 318.409 220.297 318.673 220.368 318.904C220.44 319.129 220.537 319.319 220.662 319.473C220.792 319.622 220.944 319.734 221.116 319.811C221.293 319.888 221.486 319.927 221.694 319.927C221.907 319.927 222.1 319.891 222.272 319.82C222.45 319.743 222.598 319.633 222.717 319.491C222.841 319.349 222.924 319.18 222.966 318.984H223.731C223.636 319.453 223.405 319.832 223.037 320.123C222.675 320.413 222.231 320.559 221.703 320.559ZM229.573 320.559C228.992 320.559 228.482 320.425 228.043 320.158C227.604 319.885 227.263 319.509 227.02 319.028C226.777 318.548 226.655 317.988 226.655 317.347C226.655 316.713 226.777 316.152 227.02 315.666C227.269 315.18 227.619 314.8 228.069 314.527C228.526 314.254 229.063 314.118 229.679 314.118C230.379 314.118 230.963 314.287 231.432 314.625C231.9 314.957 232.2 315.423 232.33 316.022H231.467C231.384 315.648 231.189 315.352 230.88 315.132C230.572 314.913 230.172 314.803 229.679 314.803C229.223 314.803 228.823 314.907 228.479 315.114C228.141 315.316 227.88 315.607 227.696 315.986C227.512 316.366 227.42 316.819 227.42 317.347C227.42 317.875 227.512 318.332 227.696 318.717C227.88 319.097 228.135 319.387 228.461 319.589C228.793 319.791 229.172 319.891 229.599 319.891C230.264 319.891 230.765 319.696 231.103 319.304C231.441 318.913 231.634 318.382 231.681 317.712H229.884V317.125H232.446V320.452H231.761L231.699 319.429C231.551 319.672 231.379 319.879 231.183 320.051C230.993 320.218 230.768 320.345 230.507 320.434C230.246 320.517 229.934 320.559 229.573 320.559ZM233.449 320.452V315.773H234.125L234.178 316.627C234.285 316.413 234.424 316.235 234.596 316.093C234.768 315.951 234.976 315.844 235.219 315.773C235.468 315.702 235.747 315.666 236.055 315.666V316.449H235.593C235.415 316.449 235.243 316.472 235.077 316.52C234.911 316.567 234.759 316.644 234.623 316.751C234.492 316.858 234.389 317.003 234.312 317.187C234.234 317.371 234.196 317.602 234.196 317.881V320.452H233.449ZM238.582 320.559C238.149 320.559 237.767 320.458 237.435 320.256C237.103 320.054 236.845 319.77 236.661 319.402C236.477 319.034 236.385 318.604 236.385 318.112C236.385 317.614 236.477 317.184 236.661 316.822C236.851 316.455 237.112 316.17 237.444 315.968C237.782 315.767 238.167 315.666 238.6 315.666C239.039 315.666 239.421 315.767 239.748 315.968C240.08 316.17 240.338 316.455 240.522 316.822C240.705 317.184 240.797 317.614 240.797 318.112C240.797 318.604 240.702 319.034 240.513 319.402C240.329 319.77 240.071 320.054 239.739 320.256C239.407 320.458 239.021 320.559 238.582 320.559ZM238.582 319.918C238.855 319.918 239.101 319.853 239.321 319.722C239.54 319.586 239.712 319.384 239.837 319.117C239.967 318.845 240.032 318.51 240.032 318.112C240.032 317.709 239.97 317.374 239.846 317.107C239.721 316.84 239.549 316.641 239.33 316.511C239.116 316.375 238.873 316.306 238.6 316.306C238.333 316.306 238.09 316.375 237.871 316.511C237.651 316.641 237.476 316.84 237.346 317.107C237.215 317.374 237.15 317.709 237.15 318.112C237.15 318.51 237.212 318.845 237.337 319.117C237.467 319.384 237.639 319.586 237.853 319.722C238.072 319.853 238.315 319.918 238.582 319.918ZM242.506 320.452L241.128 315.773H241.875L242.898 319.5L243.983 315.773H244.828L245.922 319.491L246.936 315.773H247.693L246.314 320.452H245.549L244.41 316.555L243.271 320.452H242.506ZM250.184 320.452C249.917 320.452 249.686 320.41 249.49 320.327C249.295 320.244 249.143 320.105 249.037 319.909C248.936 319.708 248.885 319.438 248.885 319.1V316.404H248.067V315.773H248.885L248.983 314.607H249.633V315.773H250.958V316.404H249.633V319.1C249.633 319.378 249.689 319.568 249.802 319.669C249.914 319.764 250.113 319.811 250.398 319.811H250.94V320.452H250.184ZM251.805 320.452V314.047H252.553V316.529C252.707 316.262 252.917 316.051 253.184 315.897C253.451 315.743 253.739 315.666 254.047 315.666C254.409 315.666 254.714 315.734 254.963 315.871C255.218 316.001 255.411 316.203 255.542 316.475C255.678 316.748 255.746 317.095 255.746 317.516V320.452H255.008V317.596C255.008 317.169 254.907 316.849 254.705 316.636C254.504 316.416 254.231 316.306 253.887 316.306C253.644 316.306 253.421 316.366 253.22 316.484C253.018 316.597 252.855 316.766 252.731 316.991C252.612 317.217 252.553 317.49 252.553 317.81V320.452H251.805Z" fill="#03133D"/>
<path d="M209.012 348.883C207.645 348.883 206.486 348.632 205.535 348.13C204.584 347.611 203.823 346.928 203.252 346.081C202.698 345.233 202.292 344.29 202.032 343.253C201.79 342.215 201.669 341.16 201.669 340.087C201.669 338.046 201.955 336.282 202.525 334.794C203.096 333.307 203.918 332.156 204.99 331.343C206.08 330.513 207.386 330.098 208.908 330.098C210.171 330.098 211.243 330.349 212.125 330.851C213.008 331.335 213.691 331.983 214.175 332.796C214.659 333.592 214.945 334.457 215.031 335.391H211.762C211.624 334.613 211.304 334.016 210.802 333.601C210.301 333.186 209.652 332.978 208.856 332.978C208.13 332.978 207.49 333.203 206.936 333.653C206.383 334.102 205.942 334.777 205.613 335.676C205.302 336.576 205.129 337.709 205.094 339.075C205.094 339.093 205.094 339.119 205.094 339.153C205.094 339.17 205.094 339.188 205.094 339.205C205.371 338.738 205.734 338.332 206.184 337.986C206.651 337.622 207.178 337.337 207.766 337.129C208.355 336.922 208.977 336.818 209.635 336.818C210.638 336.818 211.572 337.06 212.437 337.545C213.319 338.029 214.028 338.712 214.564 339.594C215.118 340.476 215.395 341.523 215.395 342.734C215.395 343.823 215.126 344.844 214.59 345.795C214.054 346.729 213.31 347.482 212.359 348.052C211.408 348.606 210.292 348.883 209.012 348.883ZM208.83 345.873C209.436 345.873 209.981 345.743 210.465 345.484C210.966 345.224 211.356 344.87 211.632 344.42C211.909 343.953 212.048 343.426 212.048 342.837C212.048 342.215 211.909 341.679 211.632 341.229C211.356 340.779 210.966 340.424 210.465 340.165C209.981 339.906 209.418 339.776 208.778 339.776C208.173 339.776 207.619 339.914 207.118 340.191C206.634 340.45 206.244 340.814 205.95 341.281C205.674 341.73 205.535 342.241 205.535 342.811C205.535 343.4 205.674 343.927 205.95 344.394C206.244 344.844 206.634 345.207 207.118 345.484C207.619 345.743 208.19 345.873 208.83 345.873ZM224.369 348.883C223.124 348.883 221.991 348.658 220.97 348.208C219.967 347.758 219.163 347.127 218.557 346.314C217.969 345.501 217.675 344.558 217.675 343.486C217.675 342.742 217.796 342.068 218.039 341.462C218.298 340.857 218.661 340.321 219.128 339.854C219.595 339.387 220.14 339.032 220.763 338.79C219.967 338.427 219.327 337.908 218.843 337.233C218.359 336.559 218.116 335.797 218.116 334.95C218.116 334.102 218.35 333.307 218.817 332.563C219.301 331.819 220.002 331.222 220.919 330.773C221.853 330.323 223.003 330.098 224.369 330.098C225.753 330.098 226.903 330.323 227.82 330.773C228.754 331.222 229.455 331.819 229.922 332.563C230.389 333.307 230.622 334.102 230.622 334.95C230.622 335.78 230.38 336.541 229.896 337.233C229.411 337.908 228.771 338.427 227.976 338.79C228.616 339.049 229.161 339.413 229.61 339.88C230.077 340.329 230.441 340.857 230.7 341.462C230.959 342.068 231.089 342.742 231.089 343.486C231.089 344.558 230.786 345.501 230.181 346.314C229.593 347.127 228.789 347.758 227.768 348.208C226.765 348.658 225.632 348.883 224.369 348.883ZM224.369 345.951C225.459 345.951 226.272 345.691 226.808 345.173C227.362 344.654 227.638 343.996 227.638 343.201C227.638 342.319 227.344 341.627 226.756 341.125C226.185 340.606 225.39 340.347 224.369 340.347C223.349 340.347 222.544 340.606 221.956 341.125C221.368 341.627 221.074 342.319 221.074 343.201C221.074 343.996 221.351 344.654 221.904 345.173C222.475 345.691 223.297 345.951 224.369 345.951ZM224.369 337.778C225.251 337.778 225.935 337.553 226.419 337.103C226.921 336.654 227.171 336.074 227.171 335.365C227.171 334.604 226.929 334.016 226.445 333.601C225.961 333.168 225.269 332.952 224.369 332.952C223.487 332.952 222.804 333.168 222.32 333.601C221.835 334.016 221.593 334.613 221.593 335.391C221.593 336.083 221.835 336.654 222.32 337.103C222.804 337.553 223.487 337.778 224.369 337.778ZM236.666 348.571L246.863 330.409H250.262L240.065 348.571H236.666ZM249.483 348.883C248.653 348.883 247.892 348.701 247.2 348.338C246.526 347.957 245.981 347.421 245.566 346.729C245.168 346.02 244.969 345.19 244.969 344.238C244.969 343.27 245.168 342.44 245.566 341.748C245.981 341.056 246.526 340.528 247.2 340.165C247.892 339.784 248.653 339.594 249.483 339.594C250.348 339.594 251.109 339.784 251.767 340.165C252.441 340.528 252.977 341.056 253.375 341.748C253.773 342.44 253.972 343.27 253.972 344.238C253.972 345.19 253.773 346.02 253.375 346.729C252.977 347.421 252.441 347.957 251.767 348.338C251.092 348.701 250.331 348.883 249.483 348.883ZM249.458 346.47C249.803 346.47 250.106 346.383 250.366 346.21C250.642 346.037 250.859 345.787 251.014 345.458C251.17 345.129 251.248 344.723 251.248 344.238C251.248 343.737 251.17 343.322 251.014 342.993C250.859 342.647 250.651 342.388 250.392 342.215C250.132 342.042 249.829 341.955 249.483 341.955C249.155 341.955 248.852 342.042 248.575 342.215C248.316 342.388 248.108 342.647 247.953 342.993C247.797 343.322 247.719 343.737 247.719 344.238C247.719 344.723 247.797 345.129 247.953 345.458C248.108 345.787 248.316 346.037 248.575 346.21C248.835 346.383 249.129 346.47 249.458 346.47ZM237.548 339.413C236.718 339.413 235.957 339.222 235.265 338.842C234.591 338.461 234.046 337.925 233.631 337.233C233.233 336.541 233.034 335.72 233.034 334.768C233.034 333.782 233.233 332.952 233.631 332.278C234.046 331.586 234.591 331.049 235.265 330.669C235.957 330.288 236.727 330.098 237.574 330.098C238.422 330.098 239.174 330.288 239.832 330.669C240.506 331.049 241.042 331.586 241.44 332.278C241.855 332.952 242.063 333.782 242.063 334.768C242.063 335.72 241.855 336.541 241.44 337.233C241.042 337.925 240.506 338.461 239.832 338.842C239.157 339.222 238.396 339.413 237.548 339.413ZM237.548 337C237.877 337 238.171 336.913 238.431 336.74C238.707 336.567 238.924 336.316 239.079 335.988C239.235 335.659 239.313 335.253 239.313 334.768C239.313 334.249 239.235 333.826 239.079 333.497C238.924 333.168 238.707 332.918 238.431 332.745C238.171 332.572 237.877 332.485 237.548 332.485C237.22 332.485 236.917 332.572 236.64 332.745C236.381 332.918 236.173 333.177 236.018 333.523C235.862 333.852 235.784 334.267 235.784 334.768C235.784 335.253 235.862 335.659 236.018 335.988C236.173 336.316 236.381 336.567 236.64 336.74C236.917 336.913 237.22 337 237.548 337Z" fill="#03133D"/>
<g filter="url(#filter1_d_0_476)">
<rect x="81.0719" y="448" width="140" height="62.0189" rx="8" fill="white"/>
</g>
<rect x="92.0719" y="459.491" width="55.782" height="6" rx="3" fill="#C4D2F6"/>
<rect x="91.0719" y="478.07" width="117" height="6" rx="3" fill="#EDF1FC"/>
<rect x="92.0719" y="494.769" width="117" height="6" rx="3" fill="#EDF1FC"/>
<g filter="url(#filter2_d_0_476)">
<rect x="235.072" y="448" width="140" height="62.0189" rx="8" fill="white"/>
</g>
<rect x="246.072" y="459.491" width="55.782" height="6" rx="3" fill="#C4D2F6"/>
<rect x="245.072" y="478.07" width="117" height="6" rx="3" fill="#EDF1FC"/>
<rect x="246.072" y="494.769" width="117" height="6" rx="3" fill="#EDF1FC"/>
<g filter="url(#filter3_d_0_476)">
<rect x="324.639" y="72" width="199.645" height="228" rx="10" fill="white"/>
</g>
<g filter="url(#filter4_d_0_476)">
<rect x="348.076" y="258" width="157.719" height="23.2761" rx="11.6381" fill="white"/>
</g>
<rect x="360.973" y="266.729" width="127.773" height="5.81906" rx="2.90953" fill="#EDF1FC"/>
<g filter="url(#filter5_d_0_476)">
<rect x="387.076" y="211" width="169.698" height="26.1857" rx="13.0928" fill="white"/>
</g>
<rect x="402.049" y="221.668" width="139.751" height="5.81903" rx="2.90952" fill="#0097FE"/>
<path d="M345.675 104.138C345.083 104.138 344.568 104.031 344.13 103.815C343.691 103.6 343.353 103.3 343.115 102.916C342.876 102.531 342.757 102.085 342.757 101.578H343.772C343.772 101.893 343.845 102.185 343.991 102.454C344.137 102.716 344.349 102.927 344.626 103.089C344.91 103.243 345.26 103.319 345.675 103.319C346.037 103.319 346.344 103.262 346.598 103.146C346.86 103.023 347.056 102.858 347.186 102.65C347.325 102.443 347.394 102.208 347.394 101.947C347.394 101.639 347.329 101.389 347.198 101.197C347.067 100.997 346.886 100.836 346.656 100.713C346.433 100.589 346.171 100.482 345.871 100.39C345.579 100.29 345.264 100.182 344.926 100.067C344.272 99.8512 343.791 99.5821 343.484 99.2591C343.184 98.9361 343.034 98.517 343.034 98.0018C343.034 97.5635 343.134 97.179 343.334 96.8483C343.541 96.5176 343.834 96.26 344.21 96.0754C344.595 95.8832 345.049 95.7871 345.571 95.7871C346.087 95.7871 346.533 95.8832 346.91 96.0754C347.294 96.2677 347.594 96.533 347.809 96.8714C348.025 97.202 348.132 97.5865 348.132 98.0249H347.117C347.117 97.8019 347.059 97.5827 346.944 97.3674C346.829 97.1521 346.652 96.9752 346.414 96.8368C346.183 96.6906 345.891 96.6176 345.537 96.6176C345.245 96.6099 344.983 96.6599 344.752 96.7675C344.529 96.8675 344.353 97.0136 344.222 97.2059C344.099 97.3981 344.037 97.6327 344.037 97.9095C344.037 98.171 344.091 98.3825 344.199 98.5439C344.314 98.7054 344.476 98.8439 344.683 98.9592C344.899 99.0669 345.149 99.1668 345.433 99.2591C345.718 99.3514 346.033 99.4552 346.379 99.5706C346.771 99.7013 347.117 99.8628 347.417 100.055C347.725 100.24 347.963 100.478 348.132 100.77C348.309 101.062 348.398 101.435 348.398 101.889C348.398 102.274 348.294 102.639 348.086 102.985C347.886 103.323 347.586 103.6 347.186 103.815C346.786 104.031 346.283 104.138 345.675 104.138ZM351.431 104.138C350.962 104.138 350.57 104.054 350.255 103.885C349.947 103.715 349.716 103.492 349.563 103.216C349.409 102.931 349.332 102.627 349.332 102.304C349.332 101.904 349.432 101.566 349.632 101.289C349.84 101.012 350.128 100.805 350.497 100.666C350.866 100.52 351.301 100.447 351.8 100.447H353.323C353.323 100.07 353.273 99.7551 353.173 99.5013C353.073 99.2476 352.916 99.0592 352.7 98.9361C352.493 98.8054 352.227 98.74 351.904 98.74C351.543 98.74 351.231 98.8323 350.97 99.0169C350.716 99.1937 350.559 99.4552 350.497 99.8013H349.505C349.551 99.3937 349.69 99.0515 349.92 98.7746C350.151 98.4978 350.439 98.2863 350.785 98.1402C351.139 97.9941 351.512 97.9211 351.904 97.9211C352.443 97.9211 352.889 98.021 353.242 98.221C353.596 98.4132 353.858 98.6862 354.027 99.0399C354.204 99.386 354.292 99.7974 354.292 100.274V104H353.427L353.369 102.962C353.292 103.123 353.192 103.277 353.069 103.423C352.954 103.562 352.816 103.685 352.654 103.792C352.5 103.9 352.32 103.985 352.112 104.046C351.904 104.108 351.677 104.138 351.431 104.138ZM351.57 103.319C351.831 103.319 352.07 103.262 352.285 103.146C352.508 103.031 352.696 102.877 352.85 102.685C353.004 102.493 353.119 102.277 353.196 102.039C353.281 101.793 353.323 101.535 353.323 101.266V101.197H351.881C351.512 101.197 351.212 101.243 350.981 101.335C350.758 101.42 350.597 101.543 350.497 101.705C350.397 101.866 350.347 102.051 350.347 102.258C350.347 102.474 350.393 102.662 350.485 102.823C350.578 102.977 350.716 103.1 350.901 103.193C351.085 103.277 351.308 103.319 351.57 103.319ZM355.617 104V95.6948H356.586V104H355.617ZM360.503 104.138C359.965 104.138 359.485 104.012 359.062 103.758C358.646 103.496 358.319 103.135 358.081 102.673C357.843 102.204 357.724 101.658 357.724 101.036C357.724 100.405 357.843 99.8589 358.081 99.3975C358.319 98.9284 358.646 98.567 359.062 98.3132C359.485 98.0518 359.973 97.9211 360.527 97.9211C361.103 97.9211 361.588 98.0518 361.98 98.3132C362.38 98.567 362.68 98.9092 362.88 99.3399C363.087 99.7628 363.191 100.228 363.191 100.736C363.191 100.812 363.191 100.893 363.191 100.978C363.191 101.055 363.187 101.147 363.18 101.255H358.45V100.505H362.245C362.23 99.9435 362.057 99.509 361.726 99.2014C361.403 98.8938 360.996 98.74 360.503 98.74C360.18 98.74 359.881 98.8169 359.604 98.9707C359.327 99.1245 359.1 99.3514 358.923 99.6513C358.754 99.9512 358.669 100.324 358.669 100.77V101.093C358.669 101.585 358.754 101.997 358.923 102.327C359.1 102.658 359.327 102.908 359.604 103.077C359.881 103.239 360.18 103.319 360.503 103.319C360.926 103.319 361.265 103.235 361.519 103.066C361.772 102.889 361.957 102.647 362.072 102.339H363.03C362.937 102.677 362.776 102.985 362.545 103.262C362.322 103.531 362.038 103.746 361.692 103.908C361.353 104.062 360.957 104.138 360.503 104.138ZM366.471 104.138C365.964 104.138 365.529 104.058 365.168 103.896C364.807 103.735 364.526 103.508 364.326 103.216C364.134 102.923 364.015 102.581 363.968 102.189H364.96C364.999 102.389 365.076 102.577 365.191 102.754C365.314 102.923 365.479 103.062 365.687 103.169C365.902 103.269 366.168 103.319 366.483 103.319C366.752 103.319 366.975 103.281 367.152 103.204C367.337 103.119 367.475 103.008 367.567 102.87C367.66 102.723 367.706 102.562 367.706 102.385C367.706 102.139 367.648 101.951 367.533 101.82C367.425 101.681 367.264 101.578 367.048 101.508C366.833 101.439 366.571 101.382 366.264 101.335C365.964 101.289 365.687 101.224 365.433 101.139C365.187 101.055 364.968 100.947 364.776 100.816C364.591 100.686 364.449 100.524 364.349 100.332C364.249 100.132 364.199 99.8935 364.199 99.6167C364.199 99.286 364.284 98.9938 364.453 98.74C364.63 98.4863 364.876 98.2863 365.191 98.1402C365.514 97.9941 365.895 97.9211 366.333 97.9211C366.971 97.9211 367.483 98.071 367.867 98.3709C368.252 98.6708 368.475 99.1015 368.536 99.6628H367.579C367.548 99.3783 367.421 99.1553 367.198 98.9938C366.983 98.8246 366.691 98.74 366.322 98.74C365.945 98.74 365.66 98.8131 365.468 98.9592C365.276 99.1053 365.18 99.2976 365.18 99.536C365.18 99.7051 365.226 99.8551 365.318 99.9858C365.41 100.117 365.56 100.228 365.768 100.32C365.983 100.405 366.256 100.474 366.587 100.528C367.01 100.589 367.379 100.678 367.694 100.793C368.009 100.909 368.256 101.085 368.432 101.324C368.609 101.555 368.698 101.881 368.698 102.304C368.698 102.681 368.605 103.008 368.421 103.285C368.236 103.562 367.979 103.773 367.648 103.919C367.317 104.065 366.925 104.138 366.471 104.138ZM375.047 104C374.701 104 374.401 103.946 374.148 103.839C373.894 103.731 373.698 103.55 373.559 103.296C373.429 103.035 373.363 102.685 373.363 102.247V98.8785H372.325V98.0595H373.363L373.49 96.6061H374.332V98.0595H376.039V98.8785H374.332V102.247C374.332 102.608 374.405 102.854 374.551 102.985C374.697 103.108 374.955 103.169 375.324 103.169H375.993V104H375.047ZM377.105 104V98.0595H377.982L378.063 99.1668C378.193 98.8977 378.366 98.6708 378.582 98.4863C378.797 98.3017 379.055 98.1633 379.355 98.071C379.655 97.971 379.997 97.9211 380.381 97.9211V98.9361H379.908C379.67 98.9361 379.439 98.9707 379.216 99.0399C379.001 99.1015 378.805 99.2053 378.628 99.3514C378.459 99.4898 378.324 99.6821 378.224 99.9281C378.124 100.167 378.074 100.47 378.074 100.839V104H377.105ZM383.58 104.138C383.042 104.138 382.561 104.012 382.138 103.758C381.723 103.496 381.396 103.135 381.158 102.673C380.919 102.204 380.8 101.658 380.8 101.036C380.8 100.405 380.919 99.8589 381.158 99.3975C381.396 98.9284 381.723 98.567 382.138 98.3132C382.561 98.0518 383.05 97.9211 383.603 97.9211C384.18 97.9211 384.665 98.0518 385.057 98.3132C385.457 98.567 385.756 98.9092 385.956 99.3399C386.164 99.7628 386.268 100.228 386.268 100.736C386.268 100.812 386.268 100.893 386.268 100.978C386.268 101.055 386.264 101.147 386.256 101.255H381.527V100.505H385.322C385.307 99.9435 385.134 99.509 384.803 99.2014C384.48 98.8938 384.072 98.74 383.58 98.74C383.257 98.74 382.957 98.8169 382.68 98.9707C382.404 99.1245 382.177 99.3514 382 99.6513C381.831 99.9512 381.746 100.324 381.746 100.77V101.093C381.746 101.585 381.831 101.997 382 102.327C382.177 102.658 382.404 102.908 382.68 103.077C382.957 103.239 383.257 103.319 383.58 103.319C384.003 103.319 384.342 103.235 384.595 103.066C384.849 102.889 385.034 102.647 385.149 102.339H386.106C386.014 102.677 385.853 102.985 385.622 103.262C385.399 103.531 385.114 103.746 384.768 103.908C384.43 104.062 384.034 104.138 383.58 104.138ZM387.357 104V98.0595H388.233L388.291 99.0515C388.468 98.6977 388.725 98.4209 389.064 98.221C389.402 98.021 389.79 97.9211 390.229 97.9211C390.683 97.9211 391.075 98.0095 391.405 98.1864C391.736 98.3632 391.994 98.6285 392.178 98.9823C392.363 99.336 392.455 99.7859 392.455 100.332V104H391.486V100.436C391.486 99.8743 391.355 99.4552 391.094 99.1784C390.832 98.8938 390.471 98.7516 390.01 98.7516C389.702 98.7516 389.418 98.8285 389.156 98.9823C388.902 99.1284 388.698 99.3475 388.545 99.6398C388.399 99.9243 388.326 100.274 388.326 100.689V104H387.357ZM396.31 104.138C395.764 104.138 395.279 104.004 394.856 103.735C394.441 103.466 394.114 103.096 393.876 102.627C393.645 102.151 393.53 101.616 393.53 101.024C393.53 100.424 393.645 99.8935 393.876 99.4321C394.114 98.963 394.441 98.5939 394.856 98.3248C395.279 98.0556 395.768 97.9211 396.321 97.9211C396.798 97.9211 397.209 98.0172 397.556 98.2094C397.909 98.4017 398.186 98.6708 398.386 99.0169V95.6948H399.355V104H398.478L398.386 103.043C398.271 103.227 398.117 103.404 397.925 103.573C397.74 103.742 397.513 103.881 397.244 103.988C396.975 104.088 396.663 104.138 396.31 104.138ZM396.437 103.296C396.821 103.296 397.156 103.204 397.44 103.02C397.732 102.835 397.955 102.574 398.109 102.235C398.271 101.889 398.351 101.489 398.351 101.036C398.351 100.574 398.271 100.174 398.109 99.8359C397.955 99.4975 397.732 99.236 397.44 99.0515C397.156 98.8592 396.821 98.7631 396.437 98.7631C396.067 98.7631 395.737 98.8592 395.445 99.0515C395.16 99.236 394.933 99.4975 394.764 99.8359C394.603 100.174 394.522 100.574 394.522 101.036C394.522 101.489 394.603 101.889 394.764 102.235C394.933 102.574 395.16 102.835 395.445 103.02C395.737 103.204 396.067 103.296 396.437 103.296Z" fill="#68718B"/>
<path d="M352.507 141.378C350.825 141.378 349.406 141.074 348.25 140.464C347.114 139.833 346.2 139.003 345.506 137.973C344.833 136.942 344.339 135.797 344.024 134.535C343.708 133.274 343.551 131.991 343.551 130.688C343.551 128.207 343.898 126.063 344.591 124.255C345.285 122.447 346.284 121.049 347.587 120.061C348.912 119.052 350.499 118.547 352.349 118.547C353.905 118.547 355.208 118.852 356.259 119.462C357.332 120.05 358.162 120.839 358.751 121.827C359.339 122.794 359.686 123.845 359.791 124.98H355.849C355.681 124.034 355.292 123.309 354.683 122.804C354.073 122.3 353.285 122.047 352.318 122.047C351.435 122.047 350.646 122.321 349.952 122.867C349.28 123.414 348.754 124.234 348.376 125.327C347.997 126.42 347.776 127.797 347.713 129.458C347.713 129.479 347.713 129.511 347.713 129.553C347.713 129.574 347.713 129.595 347.713 129.616C348.05 129.048 348.491 128.554 349.038 128.134C349.606 127.692 350.247 127.345 350.962 127.093C351.697 126.841 352.454 126.715 353.232 126.715C354.451 126.715 355.597 127.009 356.669 127.598C357.742 128.186 358.603 129.017 359.255 130.089C359.928 131.161 360.264 132.433 360.264 133.905C360.264 135.229 359.938 136.469 359.287 137.626C358.635 138.761 357.721 139.676 356.543 140.369C355.387 141.042 354.041 141.378 352.507 141.378ZM352.254 137.72C353.011 137.72 353.684 137.563 354.273 137.247C354.861 136.932 355.324 136.501 355.66 135.954C355.997 135.387 356.165 134.746 356.165 134.031C356.165 133.274 355.997 132.622 355.66 132.076C355.324 131.529 354.851 131.098 354.241 130.783C353.653 130.467 352.98 130.31 352.223 130.31C351.466 130.31 350.783 130.478 350.173 130.814C349.584 131.13 349.111 131.571 348.754 132.139C348.418 132.685 348.25 133.305 348.25 133.999C348.25 134.714 348.418 135.355 348.754 135.923C349.111 136.469 349.595 136.911 350.205 137.247C350.814 137.563 351.498 137.72 352.254 137.72ZM370.554 141.378C369.04 141.378 367.663 141.105 366.423 140.559C365.203 140.012 364.226 139.245 363.49 138.256C362.775 137.268 362.418 136.123 362.418 134.819C362.418 133.915 362.565 133.095 362.859 132.359C363.174 131.624 363.616 130.972 364.184 130.404C364.751 129.837 365.413 129.406 366.17 129.111C365.203 128.67 364.425 128.039 363.837 127.219C363.248 126.399 362.954 125.474 362.954 124.444C362.954 123.414 363.238 122.447 363.805 121.543C364.394 120.639 365.245 119.914 366.359 119.367C367.495 118.82 368.893 118.547 370.554 118.547C372.235 118.547 373.634 118.82 374.748 119.367C375.883 119.914 376.734 120.639 377.302 121.543C377.87 122.447 378.154 123.414 378.154 124.444C378.154 125.453 377.859 126.378 377.271 127.219C376.682 128.039 375.904 128.67 374.937 129.111C375.715 129.427 376.377 129.868 376.924 130.436C377.491 130.982 377.933 131.624 378.248 132.359C378.564 133.095 378.721 133.915 378.721 134.819C378.721 136.123 378.353 137.268 377.617 138.256C376.903 139.245 375.925 140.012 374.685 140.559C373.465 141.105 372.088 141.378 370.554 141.378ZM370.554 137.815C371.878 137.815 372.866 137.5 373.518 136.869C374.191 136.238 374.527 135.439 374.527 134.472C374.527 133.4 374.18 132.559 373.486 131.949C372.793 131.319 371.815 131.003 370.554 131.003C369.313 131.003 368.336 131.319 367.621 131.949C366.927 132.559 366.58 133.4 366.58 134.472C366.58 135.439 366.917 136.238 367.589 136.869C368.262 137.5 369.25 137.815 370.554 137.815ZM370.554 127.881C371.647 127.881 372.488 127.608 373.076 127.062C373.665 126.515 373.959 125.811 373.959 124.949C373.959 124.024 373.665 123.309 373.076 122.804C372.488 122.279 371.657 122.016 370.585 122.016C369.513 122.016 368.672 122.279 368.062 122.804C367.474 123.309 367.179 124.034 367.179 124.98C367.179 125.821 367.474 126.515 368.062 127.062C368.651 127.608 369.481 127.881 370.554 127.881ZM385.259 141L397.653 118.925H401.784L389.39 141H385.259ZM400.838 141.378C399.828 141.378 398.903 141.158 398.062 140.716C397.243 140.254 396.58 139.602 396.076 138.761C395.592 137.899 395.35 136.89 395.35 135.734C395.35 134.556 395.592 133.547 396.076 132.706C396.58 131.865 397.243 131.224 398.062 130.783C398.903 130.32 399.828 130.089 400.838 130.089C401.889 130.089 402.814 130.32 403.613 130.783C404.433 131.224 405.084 131.865 405.568 132.706C406.051 133.547 406.293 134.556 406.293 135.734C406.293 136.89 406.051 137.899 405.568 138.761C405.084 139.602 404.433 140.254 403.613 140.716C402.793 141.158 401.868 141.378 400.838 141.378ZM400.806 138.446C401.227 138.446 401.594 138.341 401.91 138.13C402.246 137.92 402.509 137.615 402.698 137.216C402.887 136.816 402.982 136.322 402.982 135.734C402.982 135.124 402.887 134.619 402.698 134.22C402.509 133.8 402.257 133.484 401.941 133.274C401.626 133.064 401.258 132.959 400.838 132.959C400.438 132.959 400.07 133.064 399.734 133.274C399.419 133.484 399.166 133.8 398.977 134.22C398.788 134.619 398.693 135.124 398.693 135.734C398.693 136.322 398.788 136.816 398.977 137.216C399.166 137.615 399.419 137.92 399.734 138.13C400.049 138.341 400.407 138.446 400.806 138.446ZM386.331 129.868C385.322 129.868 384.397 129.637 383.556 129.174C382.736 128.712 382.074 128.06 381.57 127.219C381.086 126.378 380.844 125.38 380.844 124.223C380.844 123.025 381.086 122.016 381.57 121.196C382.074 120.355 382.736 119.703 383.556 119.241C384.397 118.778 385.333 118.547 386.363 118.547C387.393 118.547 388.308 118.778 389.107 119.241C389.926 119.703 390.578 120.355 391.062 121.196C391.566 122.016 391.819 123.025 391.819 124.223C391.819 125.38 391.566 126.378 391.062 127.219C390.578 128.06 389.926 128.712 389.107 129.174C388.287 129.637 387.362 129.868 386.331 129.868ZM386.331 126.935C386.731 126.935 387.088 126.83 387.404 126.62C387.74 126.41 388.003 126.105 388.192 125.706C388.381 125.306 388.476 124.812 388.476 124.223C388.476 123.593 388.381 123.078 388.192 122.678C388.003 122.279 387.74 121.974 387.404 121.764C387.088 121.553 386.731 121.448 386.331 121.448C385.932 121.448 385.564 121.553 385.228 121.764C384.912 121.974 384.66 122.289 384.471 122.71C384.282 123.109 384.187 123.614 384.187 124.223C384.187 124.812 384.282 125.306 384.471 125.706C384.66 126.105 384.912 126.41 385.228 126.62C385.564 126.83 385.932 126.935 386.331 126.935Z" fill="#03133D"/>
<path d="M348.076 201.182C367.286 201.182 365.017 164.967 384.227 164.967C403.438 164.967 401.165 174.624 420.376 174.624C439.587 174.624 436.628 190.49 455.839 190.49C475.049 190.49 478.303 198.64 497.514 198.64" stroke="#FFAE00" stroke-width="2.0694" stroke-linecap="round"/>
<path d="M348.075 201.182C366.846 201.182 369.244 176.004 388.014 176.004C406.784 176.004 403.673 156 422.443 156C441.214 156 440.855 184.282 459.625 184.282C478.396 184.282 479.415 198.536 498.186 198.536" stroke="#0097FE" stroke-width="2.0694" stroke-linecap="round"/>
<defs>
<filter id="filter0_d_0_476" x="0.22644" y="79" width="487" height="560" filterUnits="userSpaceOnUse" color-interpolation-filters="sRGB">
<feFlood flood-opacity="0" result="BackgroundImageFix"/>
<feColorMatrix in="SourceAlpha" type="matrix" values="0 0 0 0 0 0 0 0 0 0 0 0 0 0 0 0 0 0 127 0" result="hardAlpha"/>
<feOffset dx="16" dy="32"/>
<feGaussianBlur stdDeviation="37"/>
<feComposite in2="hardAlpha" operator="out"/>
<feColorMatrix type="matrix" values="0 0 0 0 0.495833 0 0 0 0 0.542422 0 0 0 0 0.991667 0 0 0 0.08 0"/>
<feBlend mode="normal" in2="BackgroundImageFix" result="effect1_dropShadow_0_476"/>
<feBlend mode="normal" in="SourceGraphic" in2="effect1_dropShadow_0_476" result="shape"/>
</filter>
<filter id="filter1_d_0_476" x="64.5933" y="436.465" width="172.957" height="94.9761" filterUnits="userSpaceOnUse" color-interpolation-filters="sRGB">
<feFlood flood-opacity="0" result="BackgroundImageFix"/>
<feColorMatrix in="SourceAlpha" type="matrix" values="0 0 0 0 0 0 0 0 0 0 0 0 0 0 0 0 0 0 127 0" result="hardAlpha"/>
<feOffset dy="4.94357"/>
<feGaussianBlur stdDeviation="8.23929"/>
<feColorMatrix type="matrix" values="0 0 0 0 0.11 0 0 0 0 0.14137 0 0 0 0 0.4125 0 0 0 0.05 0"/>
<feBlend mode="normal" in2="BackgroundImageFix" result="effect1_dropShadow_0_476"/>
<feBlend mode="normal" in="SourceGraphic" in2="effect1_dropShadow_0_476" result="shape"/>
</filter>
<filter id="filter2_d_0_476" x="218.593" y="436.465" width="172.957" height="94.9761" filterUnits="userSpaceOnUse" color-interpolation-filters="sRGB">
<feFlood flood-opacity="0" result="BackgroundImageFix"/>
<feColorMatrix in="SourceAlpha" type="matrix" values="0 0 0 0 0 0 0 0 0 0 0 0 0 0 0 0 0 0 127 0" result="hardAlpha"/>
<feOffset dy="4.94357"/>
<feGaussianBlur stdDeviation="8.23929"/>
<feColorMatrix type="matrix" values="0 0 0 0 0.11 0 0 0 0 0.14137 0 0 0 0 0.4125 0 0 0 0.05 0"/>
<feBlend mode="normal" in2="BackgroundImageFix" result="effect1_dropShadow_0_476"/>
<feBlend mode="normal" in="SourceGraphic" in2="effect1_dropShadow_0_476" result="shape"/>
</filter>
<filter id="filter3_d_0_476" x="236.639" y="0" width="391.645" height="420" filterUnits="userSpaceOnUse" color-interpolation-filters="sRGB">
<feFlood flood-opacity="0" result="BackgroundImageFix"/>
<feColorMatrix in="SourceAlpha" type="matrix" values="0 0 0 0 0 0 0 0 0 0 0 0 0 0 0 0 0 0 127 0" result="hardAlpha"/>
<feOffset dx="8" dy="24"/>
<feGaussianBlur stdDeviation="48"/>
<feComposite in2="hardAlpha" operator="out"/>
<feColorMatrix type="matrix" values="0 0 0 0 0.494118 0 0 0 0 0.541176 0 0 0 0 0.992157 0 0 0 0.08 0"/>
<feBlend mode="normal" in2="BackgroundImageFix" result="effect1_dropShadow_0_476"/>
<feBlend mode="normal" in="SourceGraphic" in2="effect1_dropShadow_0_476" result="shape"/>
</filter>
<filter id="filter4_d_0_476" x="331.597" y="246.465" width="190.677" height="56.2333" filterUnits="userSpaceOnUse" color-interpolation-filters="sRGB">
<feFlood flood-opacity="0" result="BackgroundImageFix"/>
<feColorMatrix in="SourceAlpha" type="matrix" values="0 0 0 0 0 0 0 0 0 0 0 0 0 0 0 0 0 0 127 0" result="hardAlpha"/>
<feOffset dy="4.94357"/>
<feGaussianBlur stdDeviation="8.23929"/>
<feColorMatrix type="matrix" values="0 0 0 0 0.11 0 0 0 0 0.14137 0 0 0 0 0.4125 0 0 0 0.05 0"/>
<feBlend mode="normal" in2="BackgroundImageFix" result="effect1_dropShadow_0_476"/>
<feBlend mode="normal" in="SourceGraphic" in2="effect1_dropShadow_0_476" result="shape"/>
</filter>
<filter id="filter5_d_0_476" x="367.076" y="195" width="209.698" height="66.1857" filterUnits="userSpaceOnUse" color-interpolation-filters="sRGB">
<feFlood flood-opacity="0" result="BackgroundImageFix"/>
<feColorMatrix in="SourceAlpha" type="matrix" values="0 0 0 0 0 0 0 0 0 0 0 0 0 0 0 0 0 0 127 0" result="hardAlpha"/>
<feOffset dy="4"/>
<feGaussianBlur stdDeviation="10"/>
<feColorMatrix type="matrix" values="0 0 0 0 0.14902 0 0 0 0 0.14902 0 0 0 0 0.14902 0 0 0 0.04 0"/>
<feBlend mode="normal" in2="BackgroundImageFix" result="effect1_dropShadow_0_476"/>
<feBlend mode="normal" in="SourceGraphic" in2="effect1_dropShadow_0_476" result="shape"/>
</filter>
</defs>
</svg>
